<svg xmlns="http://www.w3.org/2000/svg" viewBox="0 0 512 512">
  <defs>
    <radialGradient id="bg" cx="50%" cy="46%" r="70%">
      <stop offset="0%" stop-color="#0f2942"/>
      <stop offset="48%" stop-color="#07121f"/>
      <stop offset="100%" stop-color="#02050a"/>
    </radialGradient>
    <linearGradient id="sweep" x1="0%" y1="0%" x2="100%" y2="100%">
      <stop offset="0%" stop-color="#f0f9ff" stop-opacity=".95"/>
      <stop offset="42%" stop-color="#38bdf8" stop-opacity=".5"/>
      <stop offset="100%" stop-color="#38bdf8" stop-opacity="0"/>
    </linearGradient>
    <filter id="glow" x="-40%" y="-40%" width="180%" height="180%">
      <feGaussianBlur stdDeviation="8" result="blur"/>
      <feColorMatrix in="blur" type="matrix" values="0 0 0 0 0.22 0 0 0 0 0.74 0 0 0 0 0.97 0 0 0 .9 0"/>
      <feMerge>
        <feMergeNode/>
        <feMergeNode in="SourceGraphic"/>
      </feMerge>
    </filter>
  </defs>
  <rect width="512" height="512" rx="112" fill="url(#bg)"/>
  <circle cx="256" cy="256" r="182" fill="none" stroke="#38bdf8" stroke-opacity=".2" stroke-width="18"/>
  <circle cx="256" cy="256" r="132" fill="none" stroke="#bae6fd" stroke-opacity=".18" stroke-width="8"/>
  <circle cx="256" cy="256" r="82" fill="none" stroke="#bae6fd" stroke-opacity=".2" stroke-width="6"/>
  <path d="M256 256 386 138c50 57 62 139 27 209L256 256Z" fill="url(#sweep)" opacity=".9" filter="url(#glow)"/>
  <path d="M256 82v348M82 256h348" stroke="#bae6fd" stroke-opacity=".18" stroke-width="6" stroke-linecap="round"/>
  <circle cx="256" cy="256" r="15" fill="#f8fafc" filter="url(#glow)"/>
  <circle cx="335" cy="168" r="14" fill="#34d399" filter="url(#glow)"/>
  <circle cx="171" cy="333" r="11" fill="#38bdf8" filter="url(#glow)"/>
  <circle cx="344" cy="318" r="9" fill="#facc15" filter="url(#glow)"/>
  <path d="M150 383c32 31 70 47 106 47 79 0 150-65 150-150" fill="none" stroke="#38bdf8" stroke-opacity=".42" stroke-width="14" stroke-linecap="round"/>
  <path d="M106 256c0-82 68-150 150-150 39 0 74 15 101 39" fill="none" stroke="#34d399" stroke-opacity=".4" stroke-width="14" stroke-linecap="round"/>
</svg>
